<svg width="137" height="48" viewBox="0 0 137 48" fill="none" xmlns="http://www.w3.org/2000/svg">
<path d="M23.1512 19.0674C21.5762 19.0674 20.9106 19.8189 19.8137 19.8189C18.6891 19.8189 17.8313 19.0729 16.4664 19.0729C15.1305 19.0729 13.7059 19.8885 12.8012 21.2779C11.5309 23.2373 11.7465 26.9275 13.8039 30.0713C14.5399 31.1967 15.5227 32.4588 16.8117 32.4725H16.8352C17.9555 32.4725 18.2883 31.7389 19.8301 31.7303H19.8535C21.3723 31.7303 21.677 32.4682 22.7926 32.4682H22.816C24.1051 32.4545 25.1407 31.0561 25.8766 29.935C26.4063 29.1287 26.6032 28.724 27.0094 27.8119C24.0332 26.6822 23.5551 22.4631 26.4985 20.8455C25.6 19.7205 24.3375 19.0689 23.1473 19.0689L23.1512 19.0674Z" fill="#69779D"/>
<path d="M22.8043 14.9712C21.8668 15.0349 20.7731 15.6317 20.1325 16.411C19.5512 17.1173 19.0731 18.1649 19.2606 19.181H19.3356C20.334 19.181 21.3559 18.5798 21.9528 17.8095C22.5278 17.0763 22.9637 16.0372 22.8043 14.9712Z" fill="#69779D"/>
<path d="M40.64 29.5C40.5547 29.5 40.48 29.468 40.416 29.404C40.352 29.34 40.32 29.2653 40.32 29.18C40.32 29.0947 40.3253 29.036 40.336 29.004L44.304 18.652C44.3893 18.4173 44.56 18.3 44.816 18.3H45.904C46.16 18.3 46.3307 18.4173 46.416 18.652L50.368 29.004L50.4 29.18C50.4 29.2653 50.368 29.34 50.304 29.404C50.24 29.468 50.1653 29.5 50.08 29.5H49.264C49.1467 29.5 49.056 29.4733 48.992 29.42C48.928 29.356 48.8853 29.292 48.864 29.228L47.984 26.956H42.736L41.856 29.228C41.8347 29.292 41.7867 29.356 41.712 29.42C41.648 29.4733 41.5627 29.5 41.456 29.5H40.64ZM47.52 25.58L45.36 19.9L43.2 25.58H47.52ZM52.2868 32.54C52.1801 32.54 52.0894 32.5027 52.0148 32.428C51.9508 32.364 51.9188 32.2787 51.9188 32.172V21.548C51.9188 21.4413 51.9508 21.356 52.0148 21.292C52.0894 21.2173 52.1801 21.18 52.2868 21.18H53.0228C53.1294 21.18 53.2148 21.2173 53.2788 21.292C53.3534 21.356 53.3908 21.4413 53.3908 21.548V22.252C53.9881 21.4307 54.8628 21.02 56.0148 21.02C57.1348 21.02 57.9721 21.372 58.5268 22.076C59.0921 22.78 59.3961 23.6867 59.4388 24.796C59.4494 24.9133 59.4548 25.0947 59.4548 25.34C59.4548 25.5853 59.4494 25.7667 59.4388 25.884C59.3961 26.9827 59.0921 27.8893 58.5268 28.604C57.9614 29.308 57.1241 29.66 56.0148 29.66C54.9054 29.66 54.0414 29.26 53.4228 28.46V32.172C53.4228 32.2787 53.3908 32.364 53.3268 32.428C53.2628 32.5027 53.1774 32.54 53.0707 32.54H52.2868ZM55.6788 28.364C56.4361 28.364 56.9854 28.1293 57.3268 27.66C57.6788 27.1907 57.8708 26.572 57.9028 25.804C57.9134 25.6973 57.9188 25.5427 57.9188 25.34C57.9188 23.324 57.1721 22.316 55.6788 22.316C54.9428 22.316 54.3881 22.5613 54.0148 23.052C53.6521 23.532 53.4548 24.108 53.4228 24.78L53.4068 25.388L53.4228 26.012C53.4441 26.6413 53.6468 27.1907 54.0308 27.66C54.4148 28.1293 54.9641 28.364 55.6788 28.364ZM61.818 32.54C61.7113 32.54 61.6207 32.5027 61.546 32.428C61.482 32.364 61.45 32.2787 61.45 32.172V21.548C61.45 21.4413 61.482 21.356 61.546 21.292C61.6207 21.2173 61.7113 21.18 61.818 21.18H62.554C62.6607 21.18 62.746 21.2173 62.81 21.292C62.8847 21.356 62.922 21.4413 62.922 21.548V22.252C63.5193 21.4307 64.394 21.02 65.546 21.02C66.666 21.02 67.5033 21.372 68.058 22.076C68.6233 22.78 68.9273 23.6867 68.97 24.796C68.9807 24.9133 68.986 25.0947 68.986 25.34C68.986 25.5853 68.9807 25.7667 68.97 25.884C68.9273 26.9827 68.6233 27.8893 68.058 28.604C67.4927 29.308 66.6553 29.66 65.546 29.66C64.4367 29.66 63.5727 29.26 62.954 28.46V32.172C62.954 32.2787 62.922 32.364 62.858 32.428C62.794 32.5027 62.7087 32.54 62.602 32.54H61.818ZM65.21 28.364C65.9673 28.364 66.5167 28.1293 66.858 27.66C67.21 27.1907 67.402 26.572 67.434 25.804C67.4447 25.6973 67.45 25.5427 67.45 25.34C67.45 23.324 66.7033 22.316 65.21 22.316C64.474 22.316 63.9193 22.5613 63.546 23.052C63.1833 23.532 62.986 24.108 62.954 24.78L62.938 25.388L62.954 26.012C62.9753 26.6413 63.178 27.1907 63.562 27.66C63.946 28.1293 64.4953 28.364 65.21 28.364ZM71.3493 29.5C71.2426 29.5 71.1519 29.468 71.0773 29.404C71.0133 29.3293 70.9813 29.2387 70.9813 29.132V18.508C70.9813 18.4013 71.0133 18.316 71.0773 18.252C71.1519 18.1773 71.2426 18.14 71.3493 18.14H72.1013C72.2079 18.14 72.2933 18.1773 72.3573 18.252C72.4319 18.316 72.4693 18.4013 72.4693 18.508V29.132C72.4693 29.2387 72.4319 29.3293 72.3573 29.404C72.2933 29.468 72.2079 29.5 72.1013 29.5H71.3493ZM78.1839 29.66C77.0852 29.66 76.2052 29.324 75.5439 28.652C74.8932 27.9693 74.5359 27.0413 74.4719 25.868L74.4559 25.324L74.4719 24.796C74.5465 23.644 74.9092 22.7267 75.5599 22.044C76.2212 21.3613 77.0905 21.02 78.1679 21.02C79.3519 21.02 80.2692 21.3987 80.9199 22.156C81.5705 22.9027 81.8959 23.916 81.8959 25.196V25.468C81.8959 25.5747 81.8585 25.6653 81.7839 25.74C81.7199 25.804 81.6345 25.836 81.5279 25.836H75.9919V25.98C76.0239 26.6733 76.2319 27.2653 76.6159 27.756C77.0105 28.236 77.5279 28.476 78.1679 28.476C78.6585 28.476 79.0585 28.38 79.3679 28.188C79.6879 27.9853 79.9225 27.7773 80.0719 27.564C80.1679 27.436 80.2372 27.3613 80.2799 27.34C80.3332 27.308 80.4239 27.292 80.5519 27.292H81.3359C81.4319 27.292 81.5119 27.3187 81.5759 27.372C81.6399 27.4253 81.6719 27.5 81.6719 27.596C81.6719 27.8307 81.5225 28.1133 81.2239 28.444C80.9359 28.7747 80.5252 29.0627 79.9919 29.308C79.4692 29.5427 78.8665 29.66 78.1839 29.66ZM80.3759 24.732V24.684C80.3759 23.948 80.1732 23.3507 79.7679 22.892C79.3732 22.4227 78.8399 22.188 78.1679 22.188C77.4959 22.188 76.9625 22.4227 76.5679 22.892C76.1839 23.3507 75.9919 23.948 75.9919 24.684V24.732H80.3759ZM91.5389 29.66C90.6535 29.66 89.8855 29.5213 89.2349 29.244C88.5949 28.9667 88.1042 28.604 87.7629 28.156C87.4215 27.6973 87.2402 27.2067 87.2189 26.684C87.2189 26.5987 87.2509 26.524 87.3149 26.46C87.3895 26.3853 87.4749 26.348 87.5709 26.348H88.3869C88.5895 26.348 88.7282 26.4547 88.8029 26.668C88.8989 27.116 89.1709 27.5 89.6189 27.82C90.0775 28.14 90.7175 28.3 91.5389 28.3C92.4242 28.3 93.0909 28.1453 93.5389 27.836C93.9869 27.516 94.2109 27.0733 94.2109 26.508C94.2109 26.1453 94.0989 25.852 93.8749 25.628C93.6615 25.404 93.3415 25.2067 92.9149 25.036C92.4882 24.8653 91.8482 24.652 90.9949 24.396C90.1629 24.1613 89.5015 23.9107 89.0109 23.644C88.5202 23.3773 88.1522 23.0467 87.9069 22.652C87.6615 22.2573 87.5389 21.7613 87.5389 21.164C87.5389 20.588 87.6935 20.0707 88.0029 19.612C88.3229 19.1533 88.7762 18.796 89.3629 18.54C89.9495 18.2733 90.6482 18.14 91.4589 18.14C92.2909 18.14 93.0055 18.2893 93.6029 18.588C94.2002 18.876 94.6535 19.244 94.9629 19.692C95.2722 20.14 95.4375 20.588 95.4589 21.036C95.4589 21.1213 95.4269 21.196 95.3629 21.26C95.3095 21.324 95.2295 21.356 95.1229 21.356H94.2749C94.0509 21.356 93.9122 21.2547 93.8589 21.052C93.7949 20.604 93.5442 20.236 93.1069 19.948C92.6695 19.6493 92.1202 19.5 91.4589 19.5C90.7335 19.5 90.1629 19.6387 89.7469 19.916C89.3309 20.1933 89.1229 20.604 89.1229 21.148C89.1229 21.5107 89.2189 21.8093 89.4109 22.044C89.6135 22.2787 89.9175 22.4867 90.3229 22.668C90.7282 22.8387 91.3202 23.036 92.0989 23.26C93.0055 23.5053 93.7202 23.7613 94.2429 24.028C94.7655 24.284 95.1549 24.6093 95.4109 25.004C95.6669 25.388 95.7949 25.8787 95.7949 26.476C95.7949 27.468 95.4109 28.2467 94.6429 28.812C93.8749 29.3773 92.8402 29.66 91.5389 29.66ZM100.932 29.5C99.2467 29.5 98.404 28.5613 98.404 26.684V22.46H97.156C97.0493 22.46 96.9587 22.428 96.884 22.364C96.82 22.2893 96.788 22.1987 96.788 22.092V21.548C96.788 21.4413 96.82 21.356 96.884 21.292C96.9587 21.2173 97.0493 21.18 97.156 21.18H98.404V18.508C98.404 18.4013 98.436 18.316 98.5 18.252C98.5747 18.1773 98.6653 18.14 98.772 18.14H99.524C99.6307 18.14 99.716 18.1773 99.78 18.252C99.8547 18.316 99.892 18.4013 99.892 18.508V21.18H101.876C101.983 21.18 102.068 21.2173 102.132 21.292C102.207 21.356 102.244 21.4413 102.244 21.548V22.092C102.244 22.1987 102.207 22.2893 102.132 22.364C102.068 22.428 101.983 22.46 101.876 22.46H99.892V26.572C99.892 27.1053 99.9827 27.5107 100.164 27.788C100.345 28.0547 100.644 28.188 101.06 28.188H102.036C102.143 28.188 102.228 28.2253 102.292 28.3C102.367 28.364 102.404 28.4493 102.404 28.556V29.132C102.404 29.2387 102.367 29.3293 102.292 29.404C102.228 29.468 102.143 29.5 102.036 29.5H100.932ZM107.342 29.66C106.169 29.66 105.257 29.3293 104.606 28.668C103.966 28.0067 103.625 27.1267 103.582 26.028L103.566 25.34L103.582 24.652C103.625 23.564 103.971 22.6893 104.622 22.028C105.273 21.356 106.179 21.02 107.342 21.02C108.505 21.02 109.411 21.356 110.062 22.028C110.713 22.6893 111.059 23.564 111.102 24.652C111.113 24.7693 111.118 24.9987 111.118 25.34C111.118 25.6813 111.113 25.9107 111.102 26.028C111.059 27.1267 110.713 28.0067 110.062 28.668C109.422 29.3293 108.515 29.66 107.342 29.66ZM107.342 28.428C108.014 28.428 108.542 28.2147 108.926 27.788C109.321 27.3613 109.534 26.748 109.566 25.948C109.577 25.8413 109.582 25.6387 109.582 25.34C109.582 25.0413 109.577 24.8387 109.566 24.732C109.534 23.932 109.321 23.3187 108.926 22.892C108.542 22.4653 108.014 22.252 107.342 22.252C106.67 22.252 106.137 22.4653 105.742 22.892C105.347 23.3187 105.139 23.932 105.118 24.732L105.102 25.34L105.118 25.948C105.139 26.748 105.347 27.3613 105.742 27.788C106.137 28.2147 106.67 28.428 107.342 28.428ZM113.49 29.5C113.383 29.5 113.292 29.468 113.218 29.404C113.154 29.3293 113.122 29.2387 113.122 29.132V21.564C113.122 21.4573 113.154 21.3667 113.218 21.292C113.292 21.2173 113.383 21.18 113.49 21.18H114.226C114.332 21.18 114.423 21.2173 114.498 21.292C114.572 21.3667 114.61 21.4573 114.61 21.564V22.268C115.047 21.5427 115.794 21.18 116.85 21.18H117.474C117.58 21.18 117.666 21.2173 117.73 21.292C117.804 21.356 117.842 21.4413 117.842 21.548V22.204C117.842 22.3107 117.804 22.396 117.73 22.46C117.666 22.524 117.58 22.556 117.474 22.556H116.514C115.938 22.556 115.484 22.7267 115.154 23.068C114.823 23.3987 114.658 23.852 114.658 24.428V29.132C114.658 29.2387 114.62 29.3293 114.546 29.404C114.471 29.468 114.38 29.5 114.274 29.5H113.49ZM122.371 29.66C121.273 29.66 120.393 29.324 119.731 28.652C119.081 27.9693 118.723 27.0413 118.659 25.868L118.643 25.324L118.659 24.796C118.734 23.644 119.097 22.7267 119.747 22.044C120.409 21.3613 121.278 21.02 122.355 21.02C123.539 21.02 124.457 21.3987 125.107 22.156C125.758 22.9027 126.083 23.916 126.083 25.196V25.468C126.083 25.5747 126.046 25.6653 125.971 25.74C125.907 25.804 125.822 25.836 125.715 25.836H120.179V25.98C120.211 26.6733 120.419 27.2653 120.803 27.756C121.198 28.236 121.715 28.476 122.355 28.476C122.846 28.476 123.246 28.38 123.555 28.188C123.875 27.9853 124.11 27.7773 124.259 27.564C124.355 27.436 124.425 27.3613 124.467 27.34C124.521 27.308 124.611 27.292 124.739 27.292H125.523C125.619 27.292 125.699 27.3187 125.763 27.372C125.827 27.4253 125.859 27.5 125.859 27.596C125.859 27.8307 125.71 28.1133 125.411 28.444C125.123 28.7747 124.713 29.0627 124.179 29.308C123.657 29.5427 123.054 29.66 122.371 29.66ZM124.563 24.732V24.684C124.563 23.948 124.361 23.3507 123.955 22.892C123.561 22.4227 123.027 22.188 122.355 22.188C121.683 22.188 121.15 22.4227 120.755 22.892C120.371 23.3507 120.179 23.948 120.179 24.684V24.732H124.563Z" fill="#69779D"/>
<rect x="0.5" y="0.5" width="136" height="47" rx="9.5" stroke="#69779D"/>
</svg>
