<svg width="23" height="23" viewBox="0 0 23 23" fill="none" xmlns="http://www.w3.org/2000/svg">
<path d="M15.6926 3.11443C16.8036 3.11775 17.8682 3.56058 18.6538 4.3462C19.4394 5.13183 19.8822 6.19641 19.8856 7.30744V15.6926C19.8822 16.8036 19.4394 17.8682 18.6538 18.6538C17.8682 19.4394 16.8036 19.8822 15.6926 19.8856H7.30744C6.19641 19.8822 5.13183 19.4394 4.3462 18.6538C3.56058 17.8682 3.11775 16.8036 3.11443 15.6926V7.30744C3.11775 6.19641 3.56058 5.13183 4.3462 4.3462C5.13183 3.56058 6.19641 3.11775 7.30744 3.11443H15.6926V3.11443ZM15.6926 1.4375H7.30744C4.07891 1.4375 1.4375 4.07891 1.4375 7.30744V15.6926C1.4375 18.9211 4.07891 21.5625 7.30744 21.5625H15.6926C18.9211 21.5625 21.5625 18.9211 21.5625 15.6926V7.30744C21.5625 4.07891 18.9211 1.4375 15.6926 1.4375V1.4375Z" fill="#69779D"/>
<path d="M16.9504 7.30762C16.7016 7.30762 16.4584 7.23385 16.2516 7.09564C16.0447 6.95743 15.8835 6.76098 15.7883 6.53115C15.6931 6.30131 15.6682 6.04841 15.7167 5.80442C15.7653 5.56043 15.8851 5.33631 16.061 5.1604C16.2369 4.98449 16.461 4.86469 16.705 4.81616C16.949 4.76763 17.2019 4.79254 17.4317 4.88774C17.6616 4.98294 17.858 5.14416 17.9962 5.351C18.1344 5.55785 18.2082 5.80103 18.2082 6.04981C18.2085 6.21508 18.1762 6.3788 18.1132 6.53157C18.0501 6.68433 17.9574 6.82314 17.8406 6.94001C17.7237 7.05688 17.5849 7.14951 17.4321 7.2126C17.2794 7.27568 17.1157 7.30797 16.9504 7.30762V7.30762ZM11.5 8.14586C12.1634 8.14586 12.8119 8.34259 13.3636 8.71116C13.9152 9.07974 14.3451 9.60361 14.599 10.2165C14.8529 10.8295 14.9193 11.5039 14.7899 12.1546C14.6604 12.8052 14.341 13.4029 13.8719 13.872C13.4028 14.3411 12.8051 14.6606 12.1544 14.79C11.5037 14.9195 10.8293 14.853 10.2164 14.5992C9.60344 14.3453 9.07957 13.9154 8.71099 13.3637C8.34241 12.8121 8.14569 12.1636 8.14569 11.5002C8.14664 10.6108 8.50034 9.75822 9.12919 9.12937C9.75804 8.50052 10.6107 8.14681 11.5 8.14586V8.14586ZM11.5 6.46893C10.5049 6.46893 9.53217 6.764 8.70479 7.31684C7.8774 7.86969 7.23254 8.65546 6.85173 9.5748C6.47093 10.4941 6.37129 11.5058 6.56543 12.4817C6.75956 13.4577 7.23874 14.3542 7.94237 15.0578C8.646 15.7614 9.54249 16.2406 10.5185 16.4348C11.4944 16.6289 12.506 16.5293 13.4254 16.1484C14.3447 15.7676 15.1305 15.1228 15.6833 14.2954C16.2362 13.468 16.5313 12.4953 16.5313 11.5002C16.5313 10.1658 16.0012 8.88609 15.0576 7.94255C14.1141 6.999 12.8344 6.46893 11.5 6.46893V6.46893Z" fill="#69779D"/>
</svg>
