<svg width="20" height="21" viewBox="0 0 20 21" fill="none" xmlns="http://www.w3.org/2000/svg">
<path d="M18.4004 0.5H1.70893C0.796875 0.5 0 1.15625 0 2.05759V18.7862C0 19.6924 0.796875 20.5 1.70893 20.5H18.3955C19.3125 20.5 20 19.6871 20 18.7862V2.05759C20.0054 1.15625 19.3125 0.5 18.4004 0.5ZM6.19955 17.171H3.33437V8.2625H6.19955V17.171ZM4.86607 6.90804H4.84554C3.92857 6.90804 3.33482 6.22545 3.33482 5.37098C3.33482 4.50089 3.9442 3.83438 4.8817 3.83438C5.8192 3.83438 6.39286 4.49598 6.41339 5.37098C6.41295 6.22545 5.8192 6.90804 4.86607 6.90804ZM16.671 17.171H13.8058V12.3C13.8058 11.133 13.3888 10.3357 12.3522 10.3357C11.5603 10.3357 11.0915 10.8714 10.883 11.3933C10.8049 11.5808 10.7839 11.8362 10.7839 12.0969V17.171H7.91875V8.2625H10.7839V9.50223C11.2009 8.90848 11.8522 8.05402 13.3679 8.05402C15.2487 8.05402 16.6714 9.29375 16.6714 11.9665L16.671 17.171Z" fill="#69779D"/>
</svg>
