<svg width="20" height="20" viewBox="0 0 20 20" fill="none" xmlns="http://www.w3.org/2000/svg">
<path d="M20 10C20 4.4774 15.5226 0 10 0C4.4774 0 0 4.4774 0 10C0 15.5226 4.4774 20 10 20C15.5226 20 20 15.5226 20 10ZM7.88462 13.5644V6.43558C7.88473 6.28949 7.92644 6.14646 8.00486 6.02321C8.08329 5.89996 8.19519 5.80159 8.32747 5.73961C8.45976 5.67763 8.60696 5.65459 8.75185 5.67321C8.89675 5.69182 9.03335 5.75131 9.14567 5.84471L13.4288 9.40865C13.5156 9.48084 13.5854 9.57124 13.6334 9.67344C13.6813 9.77564 13.7061 9.88713 13.7061 10C13.7061 10.1129 13.6813 10.2244 13.6334 10.3266C13.5854 10.4288 13.5156 10.5192 13.4288 10.5913L9.14567 14.1553C9.03335 14.2487 8.89675 14.3082 8.75185 14.3268C8.60696 14.3454 8.45976 14.3224 8.32747 14.2604C8.19519 14.1984 8.08329 14.1 8.00486 13.9768C7.92644 13.8535 7.88473 13.7105 7.88462 13.5644Z" fill="#0093FF"/>
</svg>
