<svg width="26" height="19" viewBox="0 0 26 19" fill="none" xmlns="http://www.w3.org/2000/svg">
<path d="M25.3167 4.19522C25.3167 1.96872 23.679 0.177625 21.6554 0.177625C18.9143 0.0494776 16.1188 0 13.2619 0H12.3713C9.52143 0 6.72098 0.0494778 3.97991 0.17812C1.96121 0.17812 0.323498 1.97911 0.323498 4.20562C0.199803 5.96653 0.147357 7.72794 0.150325 9.48935C0.145378 11.2508 0.201452 13.0138 0.31855 14.7785C0.31855 17.005 1.95627 18.811 3.97496 18.811C6.85457 18.9446 9.8084 19.0039 12.8117 18.999C15.82 19.0089 18.7655 18.9462 21.6484 18.811C23.6721 18.811 25.3098 17.005 25.3098 14.7785C25.4285 13.0122 25.483 11.2508 25.478 9.4844C25.4892 7.72299 25.4355 5.95993 25.3167 4.19522ZM10.3922 14.3431V4.62073L17.5665 9.47946L10.3922 14.3431Z" fill="#69779D"/>
</svg>
