<svg width="240" height="70" viewBox="0 0 240 70" fill="none" xmlns="http://www.w3.org/2000/svg">
<path d="M190.521 33.5715V31.1002H187.453V27.2583L187.349 27.2901L184.467 28.172L184.41 28.1893V31.1003H179.86V29.4786C179.86 28.7235 180.029 28.1456 180.362 27.7603C180.692 27.3795 181.165 27.186 181.768 27.186C182.201 27.186 182.65 27.288 183.102 27.4894L183.215 27.5399V24.9373L183.162 24.9178C182.74 24.7663 182.167 24.6901 181.457 24.6901C180.562 24.6901 179.749 24.8849 179.039 25.2709C178.33 25.6575 177.771 26.2094 177.38 26.9111C176.991 27.612 176.793 28.4215 176.793 29.3173V31.1002H174.656V33.5715H176.793V43.9825H179.86V33.5715H184.41V40.1875C184.41 42.9123 185.695 44.2931 188.23 44.2931C188.646 44.2931 189.085 44.2443 189.533 44.1488C189.988 44.0506 190.299 43.9526 190.481 43.8479L190.522 43.824V41.3299L190.397 41.4124C190.23 41.5233 190.023 41.614 189.78 41.6814C189.536 41.7501 189.332 41.7845 189.174 41.7845C188.58 41.7845 188.141 41.6245 187.868 41.3087C187.593 40.9901 187.453 40.4329 187.453 39.6534V33.5715H190.521ZM167.805 41.7849C166.692 41.7849 165.814 41.4157 165.195 40.6884C164.573 39.9575 164.258 38.9154 164.258 37.5914C164.258 36.2254 164.573 35.1563 165.196 34.4125C165.815 33.6735 166.684 33.2985 167.78 33.2985C168.844 33.2985 169.691 33.6567 170.297 34.3637C170.907 35.0743 171.216 36.1349 171.216 37.5168C171.216 38.9157 170.925 39.9903 170.352 40.7091C169.782 41.4225 168.925 41.7849 167.805 41.7849ZM167.942 30.7898C165.817 30.7898 164.13 31.4123 162.927 32.6399C161.725 33.8677 161.115 35.5667 161.115 37.6903C161.115 39.7073 161.71 41.3296 162.884 42.5116C164.058 43.6939 165.655 44.2929 167.631 44.2929C169.69 44.2929 171.344 43.6617 172.546 42.4171C173.749 41.1739 174.358 39.4908 174.358 37.4169C174.358 35.3684 173.786 33.7339 172.658 32.5598C171.53 31.3852 169.943 30.7898 167.942 30.7898ZM156.17 30.7898C154.725 30.7898 153.529 31.1594 152.616 31.8882C151.698 32.6213 151.232 33.5827 151.232 34.7462C151.232 35.351 151.332 35.8882 151.53 36.3438C151.729 36.801 152.037 37.2035 152.447 37.5413C152.853 37.8764 153.48 38.2273 154.311 38.5844C155.01 38.8719 155.531 39.1151 155.862 39.3068C156.186 39.4947 156.415 39.6835 156.545 39.8674C156.671 40.0474 156.735 40.2937 156.735 40.5976C156.735 41.4631 156.087 41.8842 154.753 41.8842C154.258 41.8842 153.694 41.7809 153.076 41.5773C152.462 41.3768 151.883 41.0831 151.359 40.7065L151.231 40.6152V43.5686L151.278 43.5904C151.712 43.7907 152.259 43.9597 152.904 44.0926C153.548 44.2257 154.133 44.2934 154.641 44.2934C156.209 44.2934 157.472 43.922 158.393 43.1889C159.32 42.4508 159.79 41.4667 159.79 40.263C159.79 39.3946 159.537 38.65 159.039 38.0494C158.544 37.4537 157.684 36.9069 156.485 36.4235C155.53 36.0402 154.918 35.7219 154.666 35.4777C154.423 35.2417 154.299 34.908 154.299 34.4853C154.299 34.1107 154.452 33.8106 154.765 33.5675C155.08 33.3232 155.519 33.199 156.07 33.199C156.581 33.199 157.104 33.2797 157.624 33.438C158.144 33.5962 158.6 33.8081 158.981 34.0673L159.107 34.153V31.3514L159.059 31.3307C158.707 31.18 158.244 31.051 157.681 30.9463C157.12 30.8423 156.612 30.7898 156.17 30.7898ZM143.234 41.7849C142.121 41.7849 141.243 41.4157 140.625 40.6884C140.002 39.9575 139.687 38.9157 139.687 37.5914C139.687 36.2254 140.002 35.1563 140.625 34.4125C141.244 33.6735 142.113 33.2985 143.21 33.2985C144.273 33.2985 145.12 33.6567 145.727 34.3637C146.336 35.0743 146.645 36.1349 146.645 37.5168C146.645 38.9157 146.354 39.9903 145.781 40.7091C145.211 41.4225 144.355 41.7849 143.234 41.7849ZM143.371 30.7898C141.246 30.7898 139.559 31.4123 138.357 32.6399C137.154 33.8677 136.545 35.5667 136.545 37.6903C136.545 39.7081 137.14 41.3296 138.314 42.5116C139.487 43.6939 141.084 44.2929 143.06 44.2929C145.119 44.2929 146.773 43.6617 147.976 42.4171C149.178 41.1739 149.787 39.4908 149.787 37.4169C149.787 35.3684 149.216 33.7339 148.087 32.5598C146.959 31.3852 145.372 30.7898 143.371 30.7898ZM131.888 33.3311V31.1002H128.858V43.9823H131.888V37.3926C131.888 36.2721 132.142 35.3515 132.643 34.6562C133.138 33.9692 133.798 33.6211 134.603 33.6211C134.876 33.6211 135.182 33.6661 135.514 33.7551C135.843 33.8436 136.081 33.9397 136.221 34.0408L136.348 34.1331V31.0782L136.299 31.0571C136.017 30.9372 135.618 30.8767 135.113 30.8767C134.351 30.8767 133.67 31.1214 133.086 31.6031C132.574 32.0266 132.203 32.6071 131.92 33.3311H131.888ZM123.431 30.7898C122.041 30.7898 120.801 31.0879 119.746 31.6756C118.689 32.2646 117.872 33.1055 117.316 34.1747C116.762 35.2414 116.481 36.4874 116.481 37.8769C116.481 39.0941 116.754 40.211 117.292 41.1955C117.831 42.1815 118.594 42.953 119.56 43.488C120.524 44.0224 121.639 44.2933 122.873 44.2933C124.313 44.2933 125.542 44.0054 126.528 43.4376L126.568 43.4147V40.6385L126.441 40.7315C125.994 41.0568 125.495 41.3164 124.958 41.5035C124.422 41.6904 123.934 41.7849 123.506 41.7849C122.317 41.7849 121.362 41.4128 120.67 40.6793C119.975 39.9449 119.623 38.9135 119.623 37.6158C119.623 36.3099 119.99 35.252 120.714 34.4715C121.435 33.6933 122.392 33.2985 123.556 33.2985C124.552 33.2985 125.523 33.6358 126.441 34.3018L126.568 34.3941V31.469L126.527 31.4459C126.181 31.2524 125.71 31.0927 125.125 30.9716C124.542 30.8507 123.973 30.7898 123.431 30.7898ZM114.394 31.1003H111.364V43.9823H114.394V31.1003ZM112.91 25.6125C112.411 25.6125 111.976 25.7823 111.619 26.1187C111.26 26.4561 111.078 26.8809 111.078 27.3822C111.078 27.8757 111.258 28.2927 111.613 28.6211C111.966 28.9486 112.403 29.1146 112.91 29.1146C113.417 29.1146 113.855 28.9486 114.213 28.6217C114.572 28.2927 114.755 27.8758 114.755 27.3822C114.755 26.8985 114.577 26.478 114.227 26.1323C113.878 25.7873 113.435 25.6125 112.91 25.6125ZM105.349 30.1499V43.9823H108.442V26.0069H104.162L98.7213 39.3585L93.4417 26.0069H88.9873V43.9821H91.8934V30.1485H91.9932L97.5683 43.9823H99.7614L105.25 30.1499H105.349Z" fill="#69779D"/>
<path d="M64.2551 34.2551H50V20H64.2551V34.2551Z" fill="#69779D"/>
<path d="M79.9944 34.2551H65.7396V20H79.9944V34.2551Z" fill="#69779D"/>
<path d="M64.2547 50H50V35.745H64.2547V50Z" fill="#69779D"/>
<path d="M79.9944 50H65.7396V35.745H79.9944V50Z" fill="#69779D"/>
</svg>
