<svg width="123" height="24" viewBox="0 0 123 24" fill="none" xmlns="http://www.w3.org/2000/svg">
<circle cx="10" cy="12" r="10" fill="#0093FF"/>
<circle cx="20" cy="12" r="10" fill="#6FDADA"/>
<path d="M42.04 19C41.9067 19 41.7933 18.9533 41.7 18.86C41.6067 18.7667 41.56 18.6533 41.56 18.52V5.48C41.56 5.33333 41.6067 5.22 41.7 5.14C41.7933 5.04667 41.9067 5 42.04 5H43.92C44.0667 5 44.18 5.04667 44.26 5.14C44.3533 5.22 44.4 5.33333 44.4 5.48V18.52C44.4 18.6533 44.3533 18.7667 44.26 18.86C44.18 18.9533 44.0667 19 43.92 19H42.04ZM47.7766 19C47.6432 19 47.5299 18.9533 47.4366 18.86C47.3432 18.7667 47.2966 18.6533 47.2966 18.52V9.08C47.2966 8.94667 47.3432 8.83333 47.4366 8.74C47.5299 8.64667 47.6432 8.6 47.7766 8.6H49.4166C49.5499 8.6 49.6632 8.64667 49.7566 8.74C49.8499 8.83333 49.8966 8.94667 49.8966 9.08V9.9C50.6832 8.9 51.7966 8.4 53.2366 8.4C54.4632 8.4 55.4366 8.80667 56.1566 9.62C56.8766 10.42 57.2366 11.5133 57.2366 12.9V18.52C57.2366 18.6533 57.1899 18.7667 57.0966 18.86C57.0166 18.9533 56.9032 19 56.7566 19H54.9966C54.8632 19 54.7499 18.9533 54.6566 18.86C54.5632 18.7667 54.5166 18.6533 54.5166 18.52V13.02C54.5166 12.2333 54.3232 11.6267 53.9366 11.2C53.5632 10.76 53.0166 10.54 52.2966 10.54C51.5899 10.54 51.0299 10.76 50.6166 11.2C50.2166 11.64 50.0166 12.2467 50.0166 13.02V18.52C50.0166 18.6533 49.9699 18.7667 49.8766 18.86C49.7966 18.9533 49.6832 19 49.5366 19H47.7766ZM63.637 19.2C62.2904 19.2 61.257 18.7667 60.537 17.9C59.817 17.0333 59.4304 15.88 59.377 14.44L59.357 13.78L59.377 13.14C59.417 11.74 59.797 10.6 60.517 9.72C61.2504 8.84 62.2904 8.4 63.637 8.4C64.9304 8.4 65.957 8.84 66.717 9.72V5.28C66.717 5.13333 66.7637 5.02 66.857 4.94C66.9504 4.84667 67.0637 4.8 67.197 4.8H68.897C69.0437 4.8 69.157 4.84667 69.237 4.94C69.3304 5.02 69.377 5.13333 69.377 5.28V18.52C69.377 18.6533 69.3304 18.7667 69.237 18.86C69.157 18.9533 69.0437 19 68.897 19H67.317C67.1837 19 67.0704 18.9533 66.977 18.86C66.8837 18.7667 66.837 18.6533 66.837 18.52V17.78C66.077 18.7267 65.0104 19.2 63.637 19.2ZM64.377 17.06C65.1504 17.06 65.7237 16.8133 66.097 16.32C66.4704 15.8267 66.677 15.22 66.717 14.5C66.7304 14.34 66.737 14.08 66.737 13.72C66.737 13.3733 66.7304 13.12 66.717 12.96C66.6904 12.2933 66.477 11.7267 66.077 11.26C65.6904 10.78 65.1237 10.54 64.377 10.54C62.937 10.54 62.1704 11.4267 62.077 13.2L62.057 13.8L62.077 14.4C62.1704 16.1733 62.937 17.06 64.377 17.06ZM76.5227 19.2C75.0427 19.2 73.8627 18.7733 72.9827 17.92C72.116 17.0533 71.656 15.84 71.6027 14.28L71.5827 13.78L71.6027 13.28C71.6693 11.76 72.136 10.5667 73.0027 9.7C73.8827 8.83333 75.056 8.4 76.5227 8.4C78.096 8.4 79.3093 8.88 80.1627 9.84C81.0293 10.8 81.4627 12.08 81.4627 13.68V14.1C81.4627 14.2333 81.416 14.3467 81.3227 14.44C81.2293 14.5333 81.1093 14.58 80.9627 14.58H74.3227V14.74C74.3493 15.4733 74.5493 16.0933 74.9227 16.6C75.3093 17.0933 75.836 17.34 76.5027 17.34C77.2893 17.34 77.9227 17.0333 78.4027 16.42C78.5227 16.2733 78.616 16.18 78.6827 16.14C78.7627 16.1 78.876 16.08 79.0227 16.08H80.7427C80.8627 16.08 80.9627 16.12 81.0427 16.2C81.136 16.2667 81.1827 16.3533 81.1827 16.46C81.1827 16.78 80.9893 17.16 80.6027 17.6C80.2293 18.0267 79.6893 18.4 78.9827 18.72C78.276 19.04 77.456 19.2 76.5227 19.2ZM78.7427 12.9V12.84C78.7427 12.0533 78.5427 11.42 78.1427 10.94C77.756 10.46 77.216 10.22 76.5227 10.22C75.8293 10.22 75.2893 10.46 74.9027 10.94C74.516 11.42 74.3227 12.0533 74.3227 12.84V12.9H78.7427ZM87.5256 19.2C86.5256 19.2 85.6856 19.0533 85.0056 18.76C84.3256 18.4533 83.819 18.1 83.4856 17.7C83.1656 17.2867 83.0056 16.9333 83.0056 16.64C83.0056 16.5067 83.0523 16.4 83.1456 16.32C83.239 16.24 83.3456 16.2 83.4656 16.2H85.0456C85.1656 16.2 85.2656 16.2467 85.3456 16.34C85.399 16.38 85.539 16.5 85.7656 16.7C85.9923 16.9133 86.259 17.08 86.5656 17.2C86.8723 17.32 87.2123 17.38 87.5856 17.38C88.119 17.38 88.559 17.2733 88.9056 17.06C89.2523 16.8467 89.4256 16.5533 89.4256 16.18C89.4256 15.9 89.3456 15.6733 89.1856 15.5C89.039 15.3267 88.7656 15.1733 88.3656 15.04C87.9656 14.8933 87.3723 14.74 86.5856 14.58C85.4523 14.34 84.6123 13.9733 84.0656 13.48C83.5323 12.9867 83.2656 12.3333 83.2656 11.52C83.2656 10.9867 83.4256 10.4867 83.7456 10.02C84.0656 9.54 84.539 9.15333 85.1656 8.86C85.8056 8.55333 86.5656 8.4 87.4456 8.4C88.339 8.4 89.1123 8.54667 89.7656 8.84C90.419 9.12 90.9123 9.46 91.2456 9.86C91.5923 10.2467 91.7656 10.5933 91.7656 10.9C91.7656 11.02 91.719 11.1267 91.6256 11.22C91.5456 11.3 91.4456 11.34 91.3256 11.34H89.8456C89.739 11.34 89.6256 11.2933 89.5056 11.2C89.4123 11.1333 89.2656 11.0067 89.0656 10.82C88.8656 10.6333 88.6323 10.4867 88.3656 10.38C88.099 10.2733 87.7856 10.22 87.4256 10.22C86.9323 10.22 86.5456 10.3267 86.2656 10.54C85.999 10.7533 85.8656 11.0333 85.8656 11.38C85.8656 11.6333 85.9323 11.84 86.0656 12C86.199 12.16 86.459 12.3133 86.8456 12.46C87.2323 12.6067 87.8123 12.7533 88.5856 12.9C89.8656 13.1533 90.779 13.5467 91.3256 14.08C91.8856 14.6133 92.1656 15.2667 92.1656 16.04C92.1656 16.9733 91.759 17.7333 90.9456 18.32C90.1323 18.9067 88.9923 19.2 87.5256 19.2ZM94.6302 6.88C94.4968 6.88 94.3835 6.83333 94.2902 6.74C94.1968 6.64667 94.1502 6.53333 94.1502 6.4V4.96C94.1502 4.82667 94.1968 4.71333 94.2902 4.62C94.3835 4.52667 94.4968 4.48 94.6302 4.48H96.4502C96.5835 4.48 96.6968 4.52667 96.7902 4.62C96.8968 4.71333 96.9502 4.82667 96.9502 4.96V6.4C96.9502 6.53333 96.9035 6.64667 96.8102 6.74C96.7168 6.83333 96.5968 6.88 96.4502 6.88H94.6302ZM94.7102 19C94.5768 19 94.4635 18.9533 94.3702 18.86C94.2768 18.7667 94.2302 18.6533 94.2302 18.52V9.08C94.2302 8.94667 94.2768 8.83333 94.3702 8.74C94.4635 8.64667 94.5768 8.6 94.7102 8.6H96.3702C96.5168 8.6 96.6302 8.64667 96.7102 8.74C96.8035 8.82 96.8502 8.93333 96.8502 9.08V18.52C96.8502 18.6533 96.8035 18.7667 96.7102 18.86C96.6302 18.9533 96.5168 19 96.3702 19H94.7102ZM99.9836 19C99.8503 19 99.7369 18.9533 99.6436 18.86C99.5503 18.7667 99.5036 18.6533 99.5036 18.52V9.08C99.5036 8.94667 99.5503 8.83333 99.6436 8.74C99.7369 8.64667 99.8503 8.6 99.9836 8.6H101.624C101.757 8.6 101.87 8.64667 101.964 8.74C102.057 8.83333 102.104 8.94667 102.104 9.08V9.9C102.89 8.9 104.004 8.4 105.444 8.4C106.67 8.4 107.644 8.80667 108.364 9.62C109.084 10.42 109.444 11.5133 109.444 12.9V18.52C109.444 18.6533 109.397 18.7667 109.304 18.86C109.224 18.9533 109.11 19 108.964 19H107.204C107.07 19 106.957 18.9533 106.864 18.86C106.77 18.7667 106.724 18.6533 106.724 18.52V13.02C106.724 12.2333 106.53 11.6267 106.144 11.2C105.77 10.76 105.224 10.54 104.504 10.54C103.797 10.54 103.237 10.76 102.824 11.2C102.424 11.64 102.224 12.2467 102.224 13.02V18.52C102.224 18.6533 102.177 18.7667 102.084 18.86C102.004 18.9533 101.89 19 101.744 19H99.9836ZM116.684 23.4C115.497 23.4 114.537 23.2 113.804 22.8C113.071 22.4133 112.551 21.9667 112.244 21.46C111.937 20.9533 111.784 20.52 111.784 20.16C111.784 20.04 111.831 19.9333 111.924 19.84C112.031 19.7467 112.144 19.7 112.264 19.7H114.004C114.124 19.7 114.224 19.7267 114.304 19.78C114.397 19.8467 114.471 19.96 114.524 20.12C114.657 20.48 114.871 20.78 115.164 21.02C115.471 21.2733 115.944 21.4 116.584 21.4C117.384 21.4 117.971 21.22 118.344 20.86C118.731 20.5 118.924 19.88 118.924 19V17.64C118.191 18.5067 117.164 18.94 115.844 18.94C114.457 18.94 113.411 18.5133 112.704 17.66C112.011 16.8067 111.637 15.66 111.584 14.22L111.564 13.68L111.584 13.14C111.637 11.7267 112.017 10.5867 112.724 9.72C113.431 8.84 114.471 8.4 115.844 8.4C116.551 8.4 117.171 8.53333 117.704 8.8C118.237 9.06667 118.684 9.43333 119.044 9.9V9.1C119.044 8.95333 119.091 8.83333 119.184 8.74C119.277 8.64667 119.391 8.6 119.524 8.6H121.144C121.277 8.6 121.391 8.65333 121.484 8.76C121.577 8.85333 121.624 8.96667 121.624 9.1L121.644 18.74C121.644 20.22 121.231 21.3667 120.404 22.18C119.577 22.9933 118.337 23.4 116.684 23.4ZM116.584 16.82C117.344 16.82 117.911 16.58 118.284 16.1C118.671 15.62 118.884 15.0333 118.924 14.34C118.937 14.2333 118.944 14.0133 118.944 13.68C118.944 13.36 118.937 13.1467 118.924 13.04C118.884 12.3333 118.671 11.74 118.284 11.26C117.911 10.78 117.344 10.54 116.584 10.54C115.144 10.54 114.384 11.4267 114.304 13.2L114.284 13.68C114.284 14.6267 114.451 15.3867 114.784 15.96C115.131 16.5333 115.731 16.82 116.584 16.82Z" fill="white"/>
</svg>
