<svg width="240" height="70" viewBox="0 0 240 70" fill="none" xmlns="http://www.w3.org/2000/svg">
<path fill-rule="evenodd" clip-rule="evenodd" d="M132.482 48.4953C126.442 52.9474 117.687 55.3227 110.15 55.3227C99.5806 55.3227 90.0657 51.4136 82.8673 44.912C82.3018 44.4007 82.8085 43.704 83.4872 44.1021C91.2556 48.622 100.861 51.3412 110.783 51.3412C117.475 51.3412 124.836 49.9567 131.605 47.0837C132.627 46.6494 133.482 47.7533 132.482 48.4953Z" fill="#69779D"/>
<path fill-rule="evenodd" clip-rule="evenodd" d="M134.993 45.6223C134.224 44.636 129.89 45.1563 127.944 45.387C127.352 45.4594 127.261 44.9436 127.795 44.5726C131.247 42.143 136.912 42.8443 137.572 43.6587C138.233 44.4776 137.4 50.1558 134.156 52.8659C133.659 53.2822 133.184 53.0605 133.405 52.5085C134.134 50.6897 135.767 46.6132 134.993 45.6223Z" fill="#69779D"/>
<path fill-rule="evenodd" clip-rule="evenodd" d="M128.08 27.4205V25.0588C128.08 24.7013 128.352 24.4615 128.677 24.4615H139.251C139.59 24.4615 139.862 24.7059 139.862 25.0588V27.0812C139.857 27.4205 139.572 27.8639 139.065 28.5652L133.586 36.388C135.622 36.3382 137.771 36.6413 139.617 37.682C140.034 37.9172 140.147 38.2611 140.178 38.6004V41.1205C140.178 41.4644 139.798 41.8671 139.4 41.6589C136.147 39.9532 131.826 39.7677 128.229 41.677C127.863 41.8761 127.478 41.478 127.478 41.1341V38.7407C127.478 38.3561 127.483 37.7001 127.867 37.1164L134.215 28.0132H128.691C128.352 28.0132 128.08 27.7734 128.08 27.4205Z" fill="#69779D"/>
<path fill-rule="evenodd" clip-rule="evenodd" d="M89.5091 42.1566H86.2923C85.9846 42.1339 85.7403 41.9032 85.7177 41.6091V25.0994C85.7177 24.7691 85.9936 24.5067 86.3375 24.5067H89.3372C89.6494 24.5203 89.8982 24.7601 89.9209 25.0587V27.2169H89.9797C90.7624 25.1311 92.2328 24.1583 94.2146 24.1583C96.2279 24.1583 97.4857 25.1311 98.3906 27.2169C99.1688 25.1311 100.938 24.1583 102.834 24.1583C104.182 24.1583 105.657 24.7148 106.557 25.9636C107.575 27.3526 107.367 29.3705 107.367 31.1395L107.363 41.5593C107.363 41.8896 107.087 42.1566 106.743 42.1566H103.53C103.209 42.1339 102.951 41.876 102.951 41.5593V32.8091C102.951 32.1123 103.015 30.3749 102.861 29.7143C102.621 28.6059 101.902 28.2937 100.97 28.2937C100.191 28.2937 99.3769 28.814 99.0467 29.6465C98.7164 30.479 98.748 31.8725 98.748 32.8091V41.5593C98.748 41.8896 98.4721 42.1566 98.1282 42.1566H94.9158C94.5901 42.1339 94.3367 41.876 94.3367 41.5593L94.3322 32.8091C94.3322 30.9676 94.6353 28.2575 92.3505 28.2575C90.0385 28.2575 90.129 30.8997 90.129 32.8091V41.5593C90.129 41.8896 89.853 42.1566 89.5091 42.1566" fill="#69779D"/>
<path fill-rule="evenodd" clip-rule="evenodd" d="M148.965 24.1583C153.738 24.1583 156.322 28.2575 156.322 33.4696C156.322 38.5053 153.467 42.5004 148.965 42.5004C144.278 42.5004 141.726 38.4013 141.726 33.2932C141.726 28.1534 144.309 24.1583 148.965 24.1583ZM148.992 27.529C146.621 27.529 146.472 30.7595 146.472 32.7729C146.472 34.7908 146.44 39.098 148.965 39.098C151.458 39.098 151.575 35.6233 151.575 33.5058C151.575 32.1123 151.517 30.4473 151.096 29.1262C150.734 27.977 150.015 27.529 148.992 27.529Z" fill="#69779D"/>
<path fill-rule="evenodd" clip-rule="evenodd" d="M162.511 42.1566H159.308C158.987 42.1339 158.729 41.876 158.729 41.5593L158.724 25.0451C158.751 24.742 159.018 24.5067 159.344 24.5067H162.326C162.606 24.5203 162.837 24.7103 162.9 24.9682V27.4928H162.959C163.859 25.2351 165.122 24.1583 167.343 24.1583C168.786 24.1583 170.194 24.6786 171.098 26.1038C171.94 27.425 171.94 29.6465 171.94 31.2436V41.6362C171.904 41.9258 171.637 42.1566 171.32 42.1566H168.094C167.8 42.1339 167.556 41.9168 167.524 41.6362V32.6688C167.524 30.8635 167.732 28.2213 165.511 28.2213C164.728 28.2213 164.009 28.7461 163.651 29.5424C163.199 30.5514 163.14 31.5558 163.14 32.6688V41.5593C163.135 41.8896 162.855 42.1566 162.511 42.1566" fill="#69779D"/>
<path fill-rule="evenodd" clip-rule="evenodd" d="M119.651 34.2705C119.651 35.5238 119.683 36.5689 119.049 37.6819C118.538 38.5868 117.724 39.1433 116.823 39.1433C115.588 39.1433 114.864 38.2022 114.864 36.8132C114.864 34.0714 117.321 33.5737 119.651 33.5737V34.2705ZM122.895 42.1113C122.682 42.3014 122.375 42.3149 122.135 42.1883C121.067 41.3015 120.873 40.8897 120.289 40.0437C118.524 41.8444 117.271 42.3828 114.986 42.3828C112.276 42.3828 110.172 40.7133 110.172 37.3697C110.172 34.7591 111.584 32.981 113.602 32.1123C115.348 31.3432 117.787 31.2074 119.651 30.9948V30.5785C119.651 29.8139 119.71 28.909 119.257 28.2485C118.868 27.6557 118.117 27.4114 117.452 27.4114C116.226 27.4114 115.136 28.0403 114.869 29.3434C114.814 29.6329 114.602 29.918 114.308 29.9315L111.19 29.5967C110.928 29.5379 110.634 29.3253 110.711 28.9226C111.426 25.1402 114.846 24 117.905 24C119.47 24 121.515 24.4162 122.75 25.6017C124.316 27.063 124.166 29.0131 124.166 31.135V36.1481C124.166 37.6548 124.791 38.3153 125.379 39.1297C125.583 39.4193 125.628 39.7677 125.365 39.9849C124.709 40.5323 123.542 41.5503 122.9 42.1204L122.895 42.1113" fill="#69779D"/>
<path fill-rule="evenodd" clip-rule="evenodd" d="M77.4787 34.2705C77.4787 35.5238 77.5104 36.5689 76.877 37.6819C76.3657 38.5868 75.5558 39.1433 74.6509 39.1433C73.4158 39.1433 72.6964 38.2022 72.6964 36.8132C72.6964 34.0714 75.1531 33.5737 77.4787 33.5737V34.2705ZM80.7227 42.1113C80.5101 42.3014 80.2024 42.3149 79.9626 42.1883C78.8949 41.3015 78.7048 40.8897 78.1166 40.0437C76.3521 41.8444 75.1034 42.3828 72.814 42.3828C70.1084 42.3828 68 40.7133 68 37.3697C68 34.7591 69.4161 32.981 71.4295 32.1123C73.176 31.3432 75.6146 31.2074 77.4787 30.9948V30.5785C77.4787 29.8139 77.5375 28.909 77.0896 28.2485C76.696 27.6557 75.9449 27.4114 75.2843 27.4114C74.0582 27.4114 72.9633 28.0403 72.6964 29.3434C72.6421 29.6329 72.4294 29.918 72.1399 29.9315L69.018 29.5967C68.7556 29.5379 68.466 29.3253 68.5384 28.9226C69.2578 25.1402 72.6737 24 75.7323 24C77.2977 24 79.3428 24.4162 80.5779 25.6017C82.1434 27.063 81.9941 29.0131 81.9941 31.135V36.1481C81.9941 37.6548 82.6185 38.3153 83.2066 39.1297C83.4148 39.4193 83.46 39.7677 83.1976 39.9849C82.5416 40.5323 81.3742 41.5503 80.7318 42.1204L80.7227 42.1113" fill="#69779D"/>
</svg>
