<svg width="240" height="70" viewBox="0 0 240 70" fill="none" xmlns="http://www.w3.org/2000/svg">
<path d="M55.1308 24.7216C53.3148 24.7216 52.77 25.5206 52.77 27.3003V30.2422H57.6368L57.1646 35.0364H52.77V49.5281H46.9225V35.0364H43V30.2785H46.9225V27.4093C46.9225 22.5424 48.8838 20 54.2954 20C55.4213 20 56.5835 20.0726 57.7094 20.2179V24.7216" fill="#69779D"/>
<path d="M58.0363 39.2861C58.0363 33.9108 60.5786 29.843 65.9539 29.843C68.8595 29.843 70.6392 31.3321 71.5108 33.2207V30.2789H77.1041V49.5646H71.4745V46.659C70.6755 48.5113 68.8232 49.9641 65.9176 49.9641C60.5786 49.9641 57.9999 45.9326 57.9999 40.521L58.0363 39.2861ZM63.8837 40.5936C63.8837 43.4629 64.937 45.3878 67.661 45.3878C70.0581 45.3878 71.2566 43.6445 71.2566 40.8842V38.9229C71.2566 36.1626 70.0217 34.4193 67.661 34.4193C64.937 34.4193 63.8837 36.3079 63.8837 39.2135V40.5936Z" fill="#69779D"/>
<path d="M89.2343 29.843C91.4861 29.843 93.6652 30.3152 94.8274 31.1505L93.5199 35.291C92.3214 34.7099 90.9776 34.4193 89.6338 34.4193C86.474 34.4193 85.0938 36.2353 85.0938 39.3588V40.4847C85.0938 43.6082 86.474 45.4242 89.6338 45.4242C90.9776 45.4242 92.3214 45.0973 93.5199 44.5162L94.8274 48.6566C93.6652 49.4556 91.5224 49.9641 89.2343 49.9641C82.3699 49.9641 79.2827 46.2958 79.2827 40.3757V39.4677C79.2827 33.5476 82.3699 29.843 89.2343 29.843Z" fill="#69779D"/>
<path d="M95.5904 40.63V38.923C95.5904 33.4387 98.7139 29.843 105.07 29.843C111.062 29.843 113.714 33.475 113.714 38.8503V41.9375H101.438C101.547 44.5888 102.745 45.7511 105.978 45.7511C108.084 45.7511 110.191 45.3515 112.188 44.5888L113.242 48.584C111.716 49.383 108.556 50.0005 105.76 50.0005C98.3507 49.9642 95.5904 46.2959 95.5904 40.63ZM101.438 38.0876H108.484V37.6154C108.484 35.5089 107.648 33.8382 105.07 33.8382C102.455 33.8382 101.438 35.5089 101.438 38.0876Z" fill="#69779D"/>
<path d="M135.361 40.5207C135.361 45.896 132.782 49.9638 127.407 49.9638C124.501 49.9638 122.467 48.511 121.668 46.6587V49.5642H116.147V20.5813L121.995 20.0729V32.9663C122.83 31.2593 124.719 29.8791 127.443 29.8791C132.782 29.8791 135.397 33.9106 135.397 39.3222L135.361 40.5207ZM129.513 39.1769C129.513 36.4529 128.46 34.419 125.663 34.419C123.266 34.419 121.995 36.1261 121.995 38.8863V40.9202C121.995 43.6805 123.302 45.3875 125.663 45.3875C128.46 45.3875 129.513 43.3536 129.513 40.6297V39.1769Z" fill="#69779D"/>
<path d="M137.286 40.3757V39.3951C137.286 33.8382 140.445 29.843 146.874 29.843C153.302 29.843 156.462 33.8382 156.462 39.3951V40.3757C156.462 45.9326 153.302 49.9277 146.874 49.9277C140.445 49.9277 137.286 45.9689 137.286 40.3757ZM150.651 38.9955C150.651 36.4532 149.598 34.4193 146.874 34.4193C144.15 34.4193 143.097 36.4532 143.097 38.9955V40.8115C143.097 43.3539 144.15 45.3878 146.874 45.3878C149.598 45.3878 150.651 43.3539 150.651 40.8115V38.9955Z" fill="#69779D"/>
<path d="M158.46 40.3757V39.3951C158.46 33.8382 161.619 29.843 168.048 29.843C174.477 29.843 177.636 33.8382 177.636 39.3951V40.3757C177.636 45.9326 174.477 49.9277 168.048 49.9277C161.619 49.9277 158.46 45.9689 158.46 40.3757ZM171.825 38.9955C171.825 36.4532 170.772 34.4193 168.048 34.4193C165.324 34.4193 164.271 36.4532 164.271 38.9955V40.8115C164.271 43.3539 165.324 45.3878 168.048 45.3878C170.772 45.3878 171.825 43.3539 171.825 40.8115V38.9955Z" fill="#69779D"/>
<path d="M185.663 39.4665L191.438 30.2413H197.613L191.583 39.7934L197.867 49.5635H191.656L185.663 40.1203V49.5635H179.852V20.5802L185.663 20.0354" fill="#69779D"/>
</svg>
