<svg width="116" height="32" viewBox="0 0 116 32" fill="none" xmlns="http://www.w3.org/2000/svg">
<g clip-path="url(#clip0)">
<path d="M15.9503 29.6545C14.2054 29.9609 12.4297 30.0528 10.5928 30.2975L4.99015 13.8878V31.0017C3.24517 31.1854 1.65323 31.4303 0 31.6752V0.325195H4.65359L11.0214 18.1129V0.325195H15.9503V29.6545ZM25.5941 11.8059C27.4923 11.8059 30.4007 11.714 32.1457 11.714V16.6124C29.972 16.6124 27.4311 16.6124 25.5941 16.7042V23.9908C28.472 23.8072 31.3498 23.562 34.2581 23.4701V28.1846L20.6956 29.2564V0.325195H34.2581V5.22364H25.5941V11.8059ZM52.4739 5.22375H47.3919V27.7565C45.7387 27.7565 44.0854 27.7565 42.4937 27.8176V5.22375H37.4117V0.325195H52.4741L52.4739 5.22375ZM60.4337 11.4692H67.1385V16.3676H60.4337V27.481H55.6269V0.325195H69.3122V5.22364H60.4337V11.4692ZM77.272 23.1948C80.058 23.2558 82.8744 23.4705 85.5993 23.6233V28.4606C81.2214 28.1849 76.8434 27.9097 72.3737 27.8176V0.325195H77.272V23.1948ZM89.7322 28.7974C91.2936 28.8894 92.9468 28.9812 94.5388 29.1646V0.325195H89.7322V28.7974ZM116 0.325195L109.785 15.2349L116 31.6752C114.163 31.4303 112.326 31.0935 110.489 30.7873L106.969 21.7254L103.387 30.0528C101.611 29.7463 99.8965 29.6545 98.1212 29.4095L104.428 15.051L98.7332 0.325195H103.999L107.213 8.56071L110.642 0.325195H116V0.325195Z" fill="#E50914"/>
</g>
<defs>
<clipPath id="clip0">
<rect width="116" height="31.35" fill="white" transform="translate(0 0.325195)"/>
</clipPath>
</defs>
</svg>
