<svg width="240" height="70" viewBox="0 0 240 70" fill="none" xmlns="http://www.w3.org/2000/svg">
<g clip-path="url(#clip0)">
<path d="M146.466 22.149C146.466 20.9628 147.452 20 148.669 20H174.073C175.29 20 176.277 20.9628 176.277 22.149V47.8514C176.277 49.038 175.29 50 174.073 50H148.669C147.452 50 146.466 49.038 146.466 47.8517V22.1486V22.149Z" fill="#69779D"/>
<path d="M63.0155 45.1295H75.4565V41.0446H67.5186V25.4619H63.0155V45.1295ZM81.7553 45.1295V31.5829H77.2526V45.1295H81.7553ZM79.5043 29.7336C81.0742 29.7336 82.0515 28.6934 82.0515 27.3926C82.0224 26.0635 81.0742 25.0527 79.5342 25.0527C77.9938 25.0527 76.9866 26.0639 76.9866 27.3926C76.9866 28.6934 77.9639 29.7336 79.4748 29.7336H79.5043ZM83.8457 45.1295H88.3483V37.5641C88.3483 37.1593 88.3775 36.7544 88.4967 36.466C88.8217 35.6571 89.5625 34.819 90.8066 34.819C92.4363 34.819 93.0883 36.0615 93.0883 37.8817V45.1291H97.5902V37.3619C97.5902 33.2008 95.3687 31.2646 92.406 31.2646C89.9772 31.2646 88.9106 32.6224 88.3181 33.5474H88.3483V31.5829H83.8457C83.9051 32.8541 83.8457 45.1295 83.8457 45.1295ZM103.942 25.4619H99.4398V45.1295H103.942V40.7373L105.068 39.3205L108.593 45.1295H114.132L108.208 36.7202L113.392 30.9994H107.971C107.971 30.9994 104.269 36.1174 103.942 36.7249V25.4619Z" fill="#69779D"/>
<path d="M126.173 39.4787C126.232 39.1309 126.321 38.4636 126.321 37.709C126.321 34.2072 124.544 30.652 119.864 30.652C114.857 30.652 112.546 34.6113 112.546 38.2023C112.546 42.6436 115.361 45.4171 120.278 45.4171C122.233 45.4171 124.04 45.1291 125.521 44.522L124.929 41.5483C123.714 41.9512 122.47 42.153 120.93 42.153C118.827 42.153 116.991 41.2894 116.842 39.4496L126.173 39.4779V39.4787ZM116.813 36.4326C116.931 35.2766 117.702 33.571 119.627 33.571C121.671 33.571 122.145 35.3919 122.145 36.4326H116.813H116.813ZM137.435 25.4619V32.2703H137.376C136.724 31.3173 135.361 30.6815 133.555 30.6815C130.089 30.6815 127.038 33.4553 127.067 38.1941C127.067 42.5866 129.823 45.4474 133.258 45.4474C135.125 45.4474 136.902 44.6377 137.791 43.0772H137.879L138.058 45.1295H142.056C141.997 44.1757 141.937 42.5287 141.937 40.9105V25.4615H137.435L137.435 25.4619ZM137.435 38.859C137.435 39.2053 137.406 39.5527 137.346 39.8407C137.08 41.084 136.014 41.95 134.71 41.95C132.844 41.95 131.629 40.4478 131.629 38.0784C131.629 35.8538 132.667 34.062 134.74 34.062C136.132 34.062 137.109 35.0154 137.376 36.1997C137.435 36.4605 137.435 36.7497 137.435 37.0094V38.8586V38.859Z" fill="#69779D"/>
<path d="M155.502 45.113V31.5664H151V45.113H155.503H155.502ZM153.252 29.7172C154.822 29.7172 155.799 28.6769 155.799 27.3769C155.77 26.0474 154.822 25.0363 153.282 25.0363C151.741 25.0363 150.734 26.0474 150.734 27.3769C150.734 28.6769 151.711 29.7172 153.222 29.7172H153.252H153.252ZM157.995 45.113H162.497V37.5488C162.497 37.1444 162.526 36.7391 162.645 36.4503C162.971 35.641 163.711 34.8033 164.956 34.8033C166.584 34.8033 167.236 36.0455 167.236 37.8668V45.113H171.739V37.3458C171.739 33.1851 169.518 31.2489 166.555 31.2489C164.127 31.2489 163.06 32.6063 162.467 33.5309H162.497V31.5668H157.995C158.054 32.8376 157.995 45.1134 157.995 45.1134V45.113Z" fill="#09122F"/>
</g>
<defs>
<clipPath id="clip0">
<rect width="113.293" height="30" fill="white" transform="translate(63 20)"/>
</clipPath>
</defs>
</svg>
