<svg width="240" height="70" viewBox="0 0 240 70" fill="none" xmlns="http://www.w3.org/2000/svg">
<path d="M96.4952 30.5947H85.8187V33.7628H93.3906C93.0165 38.2054 89.3204 40.1 85.8315 40.1C81.3678 40.1 77.4728 36.588 77.4728 31.6655C77.4728 26.8701 81.1858 23.1771 85.8413 23.1771C89.4331 23.1771 91.5496 25.4668 91.5496 25.4668L93.7679 23.1697C93.7679 23.1697 90.9207 20 85.7279 20C79.1155 19.9999 74 25.5808 74 31.6088C74 37.5157 78.812 43.2754 85.8964 43.2754C92.1273 43.2754 96.6883 39.007 96.6883 32.6951C96.6883 31.3635 96.4951 30.5939 96.4951 30.5939L96.4952 30.5947Z" fill="#69779D"/>
<path d="M105.241 28.3003C100.86 28.3003 97.7205 31.7252 97.7205 35.7197C97.7205 39.7732 100.766 43.2618 105.292 43.2618C109.39 43.2618 112.747 40.1298 112.747 35.8068C112.747 30.852 108.842 28.3003 105.241 28.3003ZM105.284 31.2387C107.439 31.2387 109.48 32.9805 109.48 35.787C109.48 38.534 107.448 40.3254 105.275 40.3254C102.887 40.3254 101.004 38.4132 101.004 35.7652C101.004 33.174 102.864 31.2387 105.284 31.2387Z" fill="#69779D"/>
<path d="M121.597 28.3003C117.216 28.3003 114.076 31.7252 114.076 35.7197C114.076 39.7732 117.122 43.2618 121.648 43.2618C125.746 43.2618 129.103 40.1298 129.103 35.8068C129.103 30.852 125.198 28.3003 121.597 28.3003ZM121.64 31.2387C123.795 31.2387 125.836 32.9805 125.836 35.787C125.836 38.534 123.803 40.3254 121.631 40.3254C119.243 40.3254 117.359 38.4132 117.359 35.7652C117.359 33.174 119.22 31.2387 121.64 31.2387H121.64Z" fill="#69779D"/>
<path d="M137.639 28.3082C133.618 28.3082 130.458 31.8301 130.458 35.783C130.458 40.2858 134.122 43.2718 137.57 43.2718C139.702 43.2718 140.836 42.4255 141.673 41.454V42.9291C141.673 45.5101 140.106 47.0557 137.74 47.0557C135.455 47.0557 134.309 45.3566 133.911 44.3925L131.036 45.5944C132.056 47.751 134.109 50.0001 137.764 50.0001C141.762 50.0001 144.809 47.4818 144.809 42.2005V28.758H141.673V30.0252C140.709 28.986 139.39 28.3084 137.639 28.3084V28.3082ZM137.931 31.2407C139.902 31.2407 141.926 32.9241 141.926 35.7989C141.926 38.7209 139.906 40.3313 137.887 40.3313C135.743 40.3313 133.749 38.5907 133.749 35.8266C133.749 32.9546 135.82 31.2407 137.93 31.2407H137.931Z" fill="#69779D"/>
<path d="M158.755 28.2903C154.962 28.2903 151.777 31.3081 151.777 35.7612C151.777 40.4731 155.327 43.2677 159.12 43.2677C162.285 43.2677 164.227 41.5361 165.387 39.9847L162.801 38.264C162.13 39.3055 161.008 40.3233 159.135 40.3233C157.032 40.3233 156.065 39.1716 155.466 38.0561L165.497 33.8939L164.976 32.6742C164.007 30.2855 161.747 28.2907 158.756 28.2907L158.755 28.2903ZM158.886 31.1674C160.253 31.1674 161.236 31.894 161.654 32.7653L154.955 35.5652C154.667 33.3975 156.72 31.1674 158.886 31.1674Z" fill="#69779D"/>
<path d="M146.995 42.8236H150.29V20.7737H146.995V42.8236Z" fill="#69779D"/>
</svg>
